<svg xmlns="http://www.w3.org/2000/svg" viewBox="0 0 256 256"><g fill="none" fill-rule="evenodd"><path fill="#005DC2" d="M0 0h256v128H0z"/><path fill="#FFD300" d="M0 128h256v128H0z"/><g fill="#FFD300" fill-rule="nonzero"><path d="M90.477 41.5h6.875c0-6.062-4.75-9.937-11.625-9.937s-11.875 3.625-11.875 9c0 4.75 3.937 7.812 9.25 9.437l.625.188c4.937 1.562 6.625 2.937 6.625 4.875 0 1.687-1.438 3.375-4.813 3.375s-5.5-1.688-5.625-4.813h-7c0 7.563 6.25 10.812 12.625 10.812 6.938 0 11.813-3.374 11.813-9.437 0-5.187-3.563-7.812-9.563-9.937l-.875-.375c-3.437-1.25-6-2.063-6-4.063 0-1.812 2-3 4.813-3 3.125 0 4.625 1.5 4.75 3.875ZM126.04 32h-25.938v6h9.374v26h7.188V38h9.375zM154.96 48.063c0-10.563-6.062-16.5-14-16.5-8 0-14.124 5.937-14.124 16.5 0 10.5 6.125 16.374 14.125 16.374 7.937 0 14-5.874 14-16.374Zm-7.312 0c0 7.187-2.75 9.875-6.687 9.875-3.938 0-6.813-2.688-6.813-9.875 0-7.188 2.875-10 6.813-10 3.937 0 6.687 2.812 6.687 10ZM170.96 53c8 0 11.438-4 11.438-10.437 0-6.313-3.25-10.563-11.437-10.563h-12.375v32h7.25V53h5.125Zm-5.124-15h5.125c3.125 0 4.25 2.063 4.25 4.563 0 2.5-1.125 4.5-4.25 4.5h-5.125V38ZM84.844 76h-6.563l8.125 32h7.375l5.313-20.062h.25L104.656 108h7.375l8.125-32h-6.562l-5.375 21.563h-.25L102.406 76h-6.375L90.47 97.5h-.25zM126.906 108l2.016-6h11.719l2.015 6h7.813l-11.813-32h-7.75l-11.812 32h7.812Zm7.688-22.937h.375l3.734 11.125h-7.844l3.735-11.125ZM170.781 108h7.938l-6.516-13.078c3.016-1.64 5.203-4.453 5.203-8.922 0-6.25-3.937-10-11.5-10h-12.312v32h7.25V96.25h4.187l5.75 11.75Zm-9.937-26h5.062c2.625 0 4.313 1.438 4.313 4.188 0 2.812-1.75 4.125-4.313 4.125h-5.062V82Z"/></g><g fill="#005DC2" fill-rule="nonzero"><path d="M83.031 153h-7.25v32h7.25v-13h11.5v13h7.25v-32h-7.25v13h-11.5zM127.656 179h-14.125v-7h11.937v-6h-11.937v-7h14.125v-6h-21.375v32h21.375zM152.343 179h-12.937v-26h-7.25v32h20.187zM169.031 174c8 0 11.438-4 11.438-10.437 0-6.313-3.25-10.563-11.438-10.563h-12.375v32h7.25v-11h5.125Zm-5.125-15h5.125c3.125 0 4.25 2.063 4.25 4.563 0 2.5-1.125 4.5-4.25 4.5h-5.125V159ZM52.906 197v20.875c0 3.125-2.25 5.063-5.687 5.063-3.438 0-5.813-1.938-5.813-5.063V197h-7.25v21.125c0 7.313 5.313 11.313 13.063 11.313 7.687 0 12.937-4 12.937-11.313V197h-7.25ZM84.281 229h8.687l-12.703-17.188L93.906 197h-9.5l-12.063 13.375h-.437V197h-7.25v32h7.25v-7.813l3.734-4.093zM113.844 229h7.937l-6.515-13.078c3.015-1.64 5.203-4.453 5.203-8.922 0-6.25-3.938-10-11.5-10H96.656v32h7.25v-11.75h4.188l5.75 11.75Zm-9.938-26h5.063c2.625 0 4.312 1.438 4.312 4.188 0 2.812-1.75 4.125-4.312 4.125h-5.063V203ZM131.531 229l2.016-6h11.719l2.015 6h7.813l-11.813-32h-7.75l-11.812 32h7.812Zm7.688-22.937h.375l3.734 11.125h-7.844l3.735-11.125ZM165.468 197h-7.249v32h7.25zM195.968 197h-7.25v19.687h-.25L177.156 197h-7.187v32h7.25v-19.688h.25L188.842 229h7.125zM221.843 223h-14.125v-7h11.938v-6h-11.938v-7h14.125v-6H200.47v32h21.374z"/></g></g></svg>
